name Walk9.mot
datacolumns 19
datarows 20
range 1.47300000 1.49200000
endheader

                time	   L_ground_force_vx	   L_ground_force_vy	   L_ground_force_vz	   L_ground_force_px	   L_ground_force_py	   L_ground_force_pz	   R_ground_force_vx	   R_ground_force_vy	   R_ground_force_vz	   R_ground_force_px	   R_ground_force_py	   R_ground_force_pz	   L_ground_torque_x	   L_ground_torque_y	   L_ground_torque_z	   R_ground_torque_x	   R_ground_torque_y	   R_ground_torque_z	
          1.47300000	         36.43670451	        535.19203133	         28.18230137	         -0.27821107	          0.00000000	         -0.05852380	         -0.04626375	          0.63416998	          0.04748412	          0.00034660	          0.00000000	          0.00008531	          0.00000000	         -0.75005309	          0.00000000	          0.00000000	          0.00371347	          0.00000000	
          1.47400000	         37.19054730	        537.57215356	         28.33735398	         -0.27812486	          0.00000000	         -0.05849172	         -0.04972079	          0.63236355	          0.04639415	          0.00034016	          0.00000000	          0.00008337	          0.00000000	         -0.75315340	          0.00000000	          0.00000000	          0.00445023	          0.00000000	
          1.47500000	         37.95020255	        539.93762445	         28.49209480	         -0.27803807	          0.00000000	         -0.05845950	         -0.05329372	          0.62777765	          0.04501129	          0.00033172	          0.00000000	          0.00008091	          0.00000000	         -0.75596329	          0.00000000	          0.00000000	          0.00523707	          0.00000000	
          1.47600000	         38.71565705	        542.28748592	         28.64632941	         -0.27795067	          0.00000000	         -0.05842710	         -0.05697858	          0.62017294	          0.04331404	          0.00032113	          0.00000000	          0.00007788	          0.00000000	         -0.75848734	          0.00000000	          0.00000000	          0.00607541	          0.00000000	
          1.47700000	         39.48689708	        544.62077625	         28.79986106	         -0.27786262	          0.00000000	         -0.05839450	         -0.06077053	          0.60930031	          0.04128019	          0.00030823	          0.00000000	          0.00007425	          0.00000000	         -0.76073090	          0.00000000	          0.00000000	          0.00696655	          0.00000000	
          1.47800000	         40.26390752	        546.93653169	         28.95248982	         -0.27777387	          0.00000000	         -0.05836165	         -0.06466387	          0.59490098	          0.03888686	          0.00029285	          0.00000000	          0.00006998	          0.00000000	         -0.76269942	          0.00000000	          0.00000000	          0.00791173	          0.00000000	
          1.47900000	         41.04667006	        549.23378747	         29.10401214	         -0.27768439	          0.00000000	         -0.05832852	         -0.06865195	          0.57670670	          0.03611052	          0.00027484	          0.00000000	          0.00006502	          0.00000000	         -0.76439773	          0.00000000	          0.00000000	          0.00891207	          0.00000000	
          1.48000000	         41.83516124	        551.51157827	         29.25422120	         -0.27759413	          0.00000000	         -0.05829507	         -0.07272709	          0.55443998	          0.03292707	          0.00025401	          0.00000000	          0.00005934	          0.00000000	         -0.76582937	          0.00000000	          0.00000000	          0.00996856	          0.00000000	
          1.48100000	         42.62935076	        553.76893827	         29.40290798	         -0.27750304	          0.00000000	         -0.05826126	         -0.07688056	          0.52781433	          0.02931180	          0.00023021	          0.00000000	          0.00005288	          0.00000000	         -0.76699641	          0.00000000	          0.00000000	          0.01108206	          0.00000000	
          1.48200000	         43.42920017	        556.00490123	         29.54986282	         -0.27741109	          0.00000000	         -0.05822704	         -0.08110248	          0.49653467	          0.02523954	          0.00020324	          0.00000000	          0.00004560	          0.00000000	         -0.76789956	          0.00000000	          0.00000000	          0.01225325	          0.00000000	
          1.48300000	         44.23466211	        558.21850112	         29.69487725	         -0.27731822	          0.00000000	         -0.05819236	         -0.08538178	          0.46029769	          0.02068462	          0.00017292	          0.00000000	          0.00003745	          0.00000000	         -0.76853859	          0.00000000	          0.00000000	          0.01348268	          0.00000000	
          1.48400000	         45.04568010	        560.40877375	         29.83774563	         -0.27722440	          0.00000000	         -0.05815716	         -0.08970611	          0.41879241	          0.01562100	          0.00013907	          0.00000000	          0.00002839	          0.00000000	         -0.76891297	          0.00000000	          0.00000000	          0.01477067	          0.00000000	
          1.48500000	         45.86218899	        562.57475952	         29.97826618	         -0.27712960	          0.00000000	         -0.05812139	         -0.09406180	          0.37170068	          0.01002234	          0.00010151	          0.00000000	          0.00001838	          0.00000000	         -0.76902246	          0.00000000	          0.00000000	          0.01611735	          0.00000000	
          1.48600000	         46.68411571	        564.71550682	         30.11624093	         -0.27703379	          0.00000000	         -0.05808499	         -0.09843378	          0.31869785	          0.00386203	          0.00006003	          0.00000000	          0.00000736	          0.00000000	         -0.76886763	          0.00000000	          0.00000000	          0.01752260	          0.00000000	
          1.48700000	         47.51137947	        566.83007543	         30.25147444	         -0.27693693	          0.00000000	         -0.05804791	         -0.10280550	          0.25945354	         -0.00288667	          0.00001445	          0.00000000	         -0.00000472	          0.00000000	         -0.76844985	          0.00000000	          0.00000000	          0.01898606	          0.00000000	
          1.48800000	         48.34389121	        568.91753924	         30.38377188	         -0.27683900	          0.00000000	         -0.05801009	         -0.10715888	          0.19363243	         -0.01025058	         -0.00003542	          0.00000000	         -0.00001790	          0.00000000	         -0.76777105	          0.00000000	          0.00000000	          0.02050711	          0.00000000	
          1.48900000	         49.18155206	        570.97698797	         30.51293720	         -0.27673996	          0.00000000	         -0.05797148	         -0.11147425	          0.12089521	         -0.01825645	         -0.00008978	          0.00000000	         -0.00003222	          0.00000000	         -0.76683318	          0.00000000	          0.00000000	          0.02208481	          0.00000000	
          1.49000000	         50.02425132	        573.00752816	         30.63877214	         -0.27663978	          0.00000000	         -0.05793205	         -0.11573025	          0.04089959	         -0.02693086	         -0.00014883	          0.00000000	         -0.00004775	          0.00000000	         -0.76563765	          0.00000000	          0.00000000	          0.02371791	          0.00000000	
          1.49100000	         50.87186451	        575.00828397	         30.76107631	         -0.27653842	          0.00000000	         -0.05789174	         -0.11990378	         -0.04669853	         -0.03630012	         -0.00021274	          0.00000000	         -0.00006453	          0.00000000	         -0.76418503	          0.00000000	          0.00000000	          0.02540482	          0.00000000	
          1.49200000	         51.72425185	        576.97839823	         30.87964828	         -0.27643584	          0.00000000	         -0.05785051	         -0.12396994	         -0.14224386	         -0.04639011	         -0.00028172	          0.00000000	         -0.00008259	          0.00000000	         -0.76247495	          0.00000000	          0.00000000	          0.02714356	          0.00000000	
